<?xml version="1.0" encoding="utf-8"?>
<!-- Generator: Adobe Illustrator 16.0.0, SVG Export Plug-In . SVG Version: 6.00 Build 0)  -->
<!DOCTYPE svg PUBLIC "-//W3C//DTD SVG 1.1//EN" "http://www.w3.org/Graphics/SVG/1.1/DTD/svg11.dtd">
<svg version="1.1" xmlns="http://www.w3.org/2000/svg" xmlns:xlink="http://www.w3.org/1999/xlink" x="0px" y="0px" width="60px"
	 height="60px" viewBox="0 0 60 60" enable-background="new 0 0 60 60" xml:space="preserve">
<g id="Layer_1">
</g>
<g id="txt">
	<linearGradient id="SVGID_2_" gradientUnits="userSpaceOnUse" x1="30" y1="58.4277" x2="30" y2="6.3544">
		<stop  offset="0" style="stop-color:#477256"/>
		<stop  offset="1" style="stop-color:#135D6B"/>
	</linearGradient>
	<rect fill="url(#SVGID_2_)" width="60" height="60"/>
	<g>
		<path fill="#FFFFFF" d="M47.678,49.463c0,1.09-0.877,1.974-1.959,1.974H14.283c-1.084,0-1.961-0.884-1.961-1.974v-27.47
			c0-1.09,0.877-1.974,1.961-1.974h31.436c1.082,0,1.959,0.884,1.959,1.974V49.463z"/>
		<g>
			<g>
				<path fill="none" stroke="#293F54" stroke-width="0.5669" stroke-miterlimit="10" d="M45.875,48.728c0,0.552-0.447,1-1,1H15.313
					c-0.552,0-1-0.448-1-1v-26c0-0.553,0.448-1,1-1h29.563c0.553,0,1,0.447,1,1V48.728z"/>
				
					<line fill="none" stroke="#293F54" stroke-width="0.5669" stroke-miterlimit="10" x1="14.125" y1="28.666" x2="45.813" y2="28.666"/>
				<circle fill="#00B1CC" cx="16.875" cy="25.291" r="0.813"/>
				<circle fill="#00B1CC" cx="20.875" cy="25.291" r="0.813"/>
				<circle fill="#00B1CC" cx="24.875" cy="25.291" r="0.813"/>
				<circle fill="#293F54" cx="30.25" cy="25.291" r="0.5"/>
				<circle fill="#293F54" cx="32.775" cy="25.291" r="0.5"/>
				<circle fill="#293F54" cx="35.301" cy="25.291" r="0.5"/>
				<circle fill="#293F54" cx="37.826" cy="25.291" r="0.5"/>
				<circle fill="#293F54" cx="40.351" cy="25.291" r="0.5"/>
				<circle fill="#293F54" cx="42.875" cy="25.291" r="0.5"/>
			</g>
			<g>
				<g>
					<g>
						<g>
							<g>
								<path fill="#FFC500" d="M19.026,41.251c0,0,0.814-1.539,3.696-1.539c0,0,2.547-0.181,3.695,1.539
									c0,0-1.403,1.564-3.695,1.495C22.723,42.747,20.448,42.828,19.026,41.251z"/>
							</g>
						</g>
					</g>
				</g>
				<g>
					<g>
						<g>
							<g>
								<path fill="#00B4D0" d="M19.026,33.608c0,0,0.825,1.539,3.695,1.539c0,0,2.824,0.084,3.696-1.539
									c0,0-1.45-1.545-3.696-1.494C22.722,32.114,20.526,32,19.026,33.608z"/>
							</g>
						</g>
					</g>
				</g>
				<g>
					<g>
						<g>
							<g>
								<g>
									<path fill="#293F54" d="M28.035,37.572H17.408c-0.08,0-0.146-0.064-0.146-0.145s0.065-0.145,0.146-0.145h10.627
										c0.08,0,0.145,0.064,0.145,0.145S28.115,37.572,28.035,37.572z"/>
								</g>
							</g>
						</g>
					</g>
					<g>
						<g>
							<g>
								<g>
									<path fill="#293F54" d="M22.722,37.578c-0.08,0-0.145-0.065-0.145-0.145v-5.319c0-0.08,0.064-0.145,0.145-0.145
										s0.145,0.064,0.145,0.145v5.319C22.866,37.512,22.802,37.578,22.722,37.578z"/>
								</g>
							</g>
						</g>
					</g>
					<g>
						<g>
							<g>
								<g>
									<path fill="#293F54" d="M28.036,37.585c-0.08,0-0.145-0.064-0.145-0.145c0-2.858-2.319-5.184-5.17-5.184
										c-2.85,0-5.169,2.321-5.169,5.176c0,0.079-0.064,0.145-0.145,0.145s-0.146-0.065-0.146-0.145
										c0-3.014,2.449-5.465,5.459-5.465c3.011,0,5.459,2.455,5.459,5.473C28.181,37.521,28.116,37.585,28.036,37.585z"/>
								</g>
							</g>
						</g>
					</g>
					<g>
						<g>
							<g>
								<g>
									<path fill="#293F54" d="M19.873,37.572c-0.079,0-0.145-0.064-0.145-0.145c0-4.227,2.91-5.438,2.94-5.449
										c0.074-0.029,0.158,0.007,0.188,0.081c0.03,0.074-0.007,0.158-0.08,0.188c-0.033,0.014-2.758,1.162-2.758,5.181
										C20.019,37.507,19.953,37.572,19.873,37.572z"/>
								</g>
							</g>
						</g>
					</g>
					<g>
						<g>
							<g>
								<g>
									<path fill="#293F54" d="M25.571,37.572c-0.08,0-0.146-0.064-0.146-0.145c0-4.022-2.729-5.169-2.758-5.181
										c-0.074-0.029-0.109-0.113-0.08-0.188c0.03-0.074,0.114-0.11,0.188-0.081c0.03,0.012,2.94,1.223,2.94,5.449
										C25.716,37.507,25.65,37.572,25.571,37.572z"/>
								</g>
							</g>
						</g>
					</g>
					<g>
						<g>
							<g>
								<g>
									<path fill="#293F54" d="M22.722,35.292c-2.99,0-3.792-1.554-3.824-1.62c-0.036-0.072-0.007-0.158,0.065-0.194
										c0.071-0.035,0.158-0.006,0.193,0.066c0.008,0.014,0.769,1.458,3.565,1.458c0.08,0,0.145,0.065,0.145,0.145
										C22.866,35.227,22.802,35.292,22.722,35.292z"/>
								</g>
							</g>
						</g>
					</g>
					<g>
						<g>
							<g>
								<g>
									<path fill="#293F54" d="M22.723,35.292c-0.08,0-0.145-0.065-0.145-0.146c0-0.079,0.064-0.145,0.145-0.145
										c2.813,0,3.558-1.443,3.565-1.458c0.035-0.072,0.122-0.102,0.193-0.066c0.072,0.036,0.102,0.122,0.065,0.194
										C26.515,33.739,25.713,35.292,22.723,35.292z"/>
								</g>
							</g>
						</g>
					</g>
					<g>
						<g>
							<g>
								<g>
									<path fill="#293F54" d="M22.723,42.891c-0.08,0-0.145-0.065-0.145-0.145v-5.319c0-0.08,0.064-0.145,0.145-0.145
										s0.145,0.064,0.145,0.145v5.319C22.867,42.826,22.803,42.891,22.723,42.891z"/>
								</g>
							</g>
						</g>
					</g>
					<g>
						<g>
							<g>
								<g>
									<path fill="#293F54" d="M22.722,42.892c-3.01,0-5.459-2.449-5.459-5.459c0-0.08,0.065-0.146,0.146-0.146
										s0.145,0.065,0.145,0.146c0,2.85,2.319,5.169,5.169,5.169c2.851,0,5.17-2.319,5.17-5.169c0-0.08,0.064-0.146,0.145-0.146
										s0.145,0.065,0.145,0.146C28.181,40.443,25.732,42.892,22.722,42.892z"/>
								</g>
							</g>
						</g>
					</g>
					<g>
						<g>
							<g>
								<g>
									<path fill="#293F54" d="M22.723,42.892c-0.058,0-0.112-0.035-0.135-0.092c-0.029-0.074,0.006-0.158,0.08-0.188
										c0.033-0.014,2.758-1.162,2.758-5.18c0-0.08,0.065-0.146,0.146-0.146c0.079,0,0.145,0.065,0.145,0.146
										c0,4.226-2.91,5.437-2.94,5.448C22.759,42.888,22.74,42.892,22.723,42.892z"/>
								</g>
							</g>
						</g>
					</g>
					<g>
						<g>
							<g>
								<g>
									<path fill="#293F54" d="M22.722,42.892c-0.018,0-0.035-0.004-0.053-0.011c-0.03-0.012-2.94-1.223-2.94-5.448
										c0-0.08,0.065-0.146,0.145-0.146c0.08,0,0.146,0.065,0.146,0.146c0,4.021,2.729,5.168,2.758,5.18
										c0.073,0.029,0.109,0.114,0.08,0.188C22.834,42.857,22.779,42.892,22.722,42.892z"/>
								</g>
							</g>
						</g>
					</g>
					<g>
						<g>
							<g>
								<g>
									<path fill="#293F54" d="M26.418,41.396c-0.054,0-0.104-0.029-0.13-0.08c-0.01-0.02-0.773-1.459-3.565-1.459
										c-0.08,0-0.145-0.064-0.145-0.145s0.064-0.145,0.145-0.145c2.99,0,3.792,1.554,3.824,1.62
										c0.036,0.071,0.007,0.158-0.065,0.193C26.461,41.391,26.439,41.396,26.418,41.396z"/>
								</g>
							</g>
						</g>
					</g>
					<g>
						<g>
							<g>
								<g>
									<path fill="#293F54" d="M19.026,41.396c-0.021,0-0.043-0.005-0.063-0.015c-0.072-0.035-0.102-0.122-0.065-0.193
										c0.032-0.066,0.834-1.62,3.824-1.62c0.08,0,0.145,0.064,0.145,0.145s-0.064,0.145-0.145,0.145
										c-2.813,0-3.558,1.444-3.565,1.459C19.131,41.367,19.08,41.396,19.026,41.396z"/>
								</g>
							</g>
						</g>
					</g>
				</g>
			</g>
			<g>
				
					<line id="XMLID_252_" fill="none" stroke="#293F54" stroke-width="0.4544" stroke-linecap="round" stroke-linejoin="round" stroke-miterlimit="10" x1="39.891" y1="40.668" x2="41.579" y2="40.668"/>
				
					<circle id="XMLID_251_" fill="none" stroke="#293F54" stroke-width="0.4544" stroke-linecap="round" stroke-linejoin="round" stroke-miterlimit="10" cx="34.771" cy="42.799" r="0.84"/>
				
					<path id="XMLID_250_" fill="none" stroke="#293F54" stroke-width="0.4544" stroke-linecap="round" stroke-linejoin="round" stroke-miterlimit="10" d="
					M33.591,42.196c-0.151-0.146-0.356-0.236-0.583-0.236c-0.464,0-0.84,0.377-0.84,0.84c0,0.465,0.376,0.84,0.84,0.84
					c0.227,0,0.432-0.09,0.583-0.236"/>
				
					<path id="XMLID_249_" fill="none" stroke="#293F54" stroke-width="0.4544" stroke-linecap="round" stroke-linejoin="round" stroke-miterlimit="10" d="
					M31.469,42.395h-1.005c-0.328,0-0.595-0.266-0.595-0.594v-0.891h8.376c0.35,0,0.633-0.283,0.633-0.633v-2.701h1.013
					c0.479,0,0.993,0.285,1.184,0.803c0.369,1.068,0.558,2.283,0.558,3.414v0.602h-1.001"/>
				
					<circle id="XMLID_248_" fill="none" stroke="#293F54" stroke-width="0.4544" stroke-linecap="round" stroke-linejoin="round" stroke-miterlimit="10" cx="39.895" cy="42.799" r="0.84"/>
				
					<line id="XMLID_247_" fill="none" stroke="#293F54" stroke-width="0.4544" stroke-linecap="round" stroke-linejoin="round" stroke-miterlimit="10" x1="36.222" y1="42.395" x2="38.432" y2="42.395"/>
				
					<line id="XMLID_246_" fill="none" stroke="#293F54" stroke-width="0.4544" stroke-linecap="round" stroke-linejoin="round" stroke-miterlimit="10" x1="38.878" y1="37.577" x2="38.878" y2="36.704"/>
				
					<path id="XMLID_245_" fill="none" stroke="#293F54" stroke-width="0.4544" stroke-linecap="round" stroke-linejoin="round" stroke-miterlimit="10" d="
					M30.091,40.124h7.79c0.123,0,0.222-0.1,0.222-0.221v-5.219"/>
				
					<polyline fill="none" stroke="#293F54" stroke-width="0.4544" stroke-linecap="round" stroke-linejoin="round" stroke-miterlimit="10" points="
					34.54,39.495 34.54,36.616 37.418,36.616 37.418,39.495 				"/>
				
					<polyline fill="none" stroke="#293F54" stroke-width="0.4544" stroke-linecap="round" stroke-linejoin="round" stroke-miterlimit="10" points="
					32.68,35.932 32.68,33.053 35.558,33.053 35.558,35.932 				"/>
				
					<polyline fill="none" stroke="#293F54" stroke-width="0.4544" stroke-linecap="round" stroke-linejoin="round" stroke-miterlimit="10" points="
					30.797,39.495 30.797,36.618 33.675,36.616 33.675,39.495 				"/>
				<path fill="#00C2CA" d="M33.254,33.629v1.523c0.271-0.096,0.562-0.148,0.865-0.148c0.303,0,0.594,0.053,0.864,0.148v-1.523
					H33.254z"/>
				<path fill="#FFC500" d="M31.372,37.141v1.523c0.27-0.096,0.561-0.148,0.864-0.148c0.303,0,0.594,0.053,0.864,0.148v-1.523
					H31.372z"/>
				<path fill="#FFC500" d="M35.115,37.141v1.523c0.27-0.096,0.561-0.148,0.864-0.148c0.303,0,0.594,0.053,0.864,0.148v-1.523
					H35.115z"/>
			</g>
			
				<line fill="none" stroke="#FFC500" stroke-width="0.4544" stroke-linecap="round" stroke-linejoin="round" stroke-miterlimit="10" stroke-dasharray="0.1134,1.1339" x1="17.688" y1="45.902" x2="43.021" y2="45.902"/>
			<circle fill="#00B1CC" cx="18.251" cy="45.96" r="0.989"/>
			<circle fill="#00B1CC" cx="29.168" cy="45.96" r="0.989"/>
			<circle fill="#293F54" cx="42.375" cy="45.96" r="0.989"/>
		</g>
	</g>
	<path fill="#98C020" d="M29.01,7.008c0.309,0,0.576-0.108,0.801-0.324c0.199-0.192,0.303-0.392,0.313-0.6
		c0.008-0.141-0.047-0.281-0.164-0.417c-0.115-0.138-0.262-0.207-0.436-0.207c-0.301,0-0.574,0.1-0.82,0.3
		c-0.244,0.199-0.371,0.408-0.379,0.625C28.307,6.8,28.535,7.008,29.01,7.008z"/>
	<path fill="#FFFFFF" d="M37.514,11.228l-0.139-0.185c-0.096,0.108-0.215,0.225-0.361,0.348c-0.18,0.147-0.303,0.222-0.371,0.222
		c-0.094,0-0.154-0.02-0.178-0.06c-0.023-0.039-0.035-0.11-0.029-0.214c0-0.039,0.031-0.191,0.092-0.455
		c0.063-0.263,0.096-0.464,0.102-0.602c0.004-0.202-0.033-0.358-0.111-0.466C36.414,9.684,36.24,9.627,36,9.646
		c-0.281,0.025-0.574,0.136-0.881,0.333c-0.127,0.084-0.25,0.182-0.369,0.295c0.213-0.889,0.32-1.497,0.326-1.824
		c0.004-0.484-0.195-0.733-0.6-0.749c-0.457-0.015-0.793,0.244-1.006,0.776c0.09-0.04,0.174-0.059,0.252-0.059
		c0.064,0,0.131,0.04,0.199,0.118c0.104,0.124,0.146,0.313,0.125,0.57c-0.014,0.188-0.059,0.59-0.133,1.207
		c-0.016,0.154-0.033,0.296-0.047,0.428c-0.029,0.021-0.057,0.042-0.088,0.062c-0.373,0.25-0.715,0.375-1.021,0.375
		c-0.408,0-0.609-0.154-0.6-0.461c0.016-0.534,0.107-1.233,0.273-2.099h0.887c0.068,0,0.102-0.029,0.102-0.087l0.109-0.537
		c0.018-0.083-0.018-0.125-0.109-0.125h-0.838c0.199-0.949,0.338-1.607,0.412-1.974c0.016-0.066-0.033-0.099-0.148-0.099
		c-0.219,0-0.502,0.091-0.85,0.274c-0.375,0.2-0.58,0.4-0.613,0.599L31.184,7.87H30.67c-0.066,0-0.104,0.029-0.111,0.087
		l-0.113,0.537c-0.016,0.083,0.021,0.125,0.113,0.125h0.514c-0.127,0.723-0.223,1.32-0.285,1.796
		c-0.125,0.125-0.266,0.254-0.428,0.39c-0.299,0.25-0.508,0.375-0.623,0.375c-0.268,0-0.396-0.179-0.389-0.537
		c0.125-0.782,0.242-1.427,0.35-1.935c0.033-0.3-0.016-0.543-0.145-0.731c-0.129-0.187-0.33-0.269-0.604-0.244
		c-0.176,0.017-0.441,0.184-0.801,0.5c-0.266,0.241-0.533,0.482-0.799,0.724l0.287,0.337c0.232-0.175,0.375-0.263,0.424-0.263
		c0.15,0,0.225,0.108,0.225,0.325c0,0.042-0.08,0.35-0.242,0.924c-0.041,0.146-0.078,0.282-0.109,0.409
		c-0.375,0.259-0.855,0.531-1.445,0.815c0.301-0.991,0.465-1.915,0.498-2.772c0.027-0.691-0.281-1.045-0.922-1.062
		c-0.775-0.024-1.283,0.408-1.523,1.299c0.135-0.058,0.273-0.087,0.418-0.087c0.117,0,0.215,0.047,0.291,0.143
		c0.076,0.096,0.109,0.207,0.102,0.331c-0.008,0.325-0.174,0.672-0.496,1.043c-0.324,0.371-0.611,0.556-0.863,0.556
		c-0.176,0-0.26-0.15-0.252-0.45c0.01-0.158,0.064-0.479,0.162-0.961c0.092-0.458,0.137-0.766,0.137-0.924
		c0-0.274-0.07-0.497-0.211-0.668c-0.141-0.17-0.346-0.244-0.611-0.219c-0.184,0.017-0.455,0.184-0.813,0.5
		c-0.266,0.241-0.531,0.482-0.799,0.724l0.287,0.337c0.232-0.175,0.375-0.263,0.424-0.263c0.158,0,0.234,0.108,0.225,0.325
		c0,0.017-0.074,0.279-0.225,0.787c-0.148,0.508-0.227,0.886-0.236,1.136c-0.016,0.342,0.047,0.604,0.189,0.787
		c0.174,0.225,0.467,0.32,0.875,0.287c0.486-0.033,0.971-0.212,1.455-0.537c0.201-0.133,0.393-0.287,0.576-0.462
		c-0.066,0.333-0.145,0.616-0.236,0.85c-0.9,0.408-1.549,0.757-1.947,1.049c-0.566,0.407-0.871,0.845-0.912,1.311
		c-0.076,0.808,0.332,1.212,1.223,1.212c0.6,0,1.18-0.366,1.736-1.1c0.475-0.624,0.887-1.457,1.236-2.497
		c0.605-0.3,1.117-0.594,1.535-0.882c-0.014,0.097-0.021,0.183-0.023,0.258c-0.01,0.266,0.057,0.482,0.193,0.649
		c0.137,0.167,0.334,0.25,0.594,0.25c0.557,0,1.115-0.242,1.674-0.724c0.162-0.143,0.309-0.292,0.443-0.449
		c-0.006,0.108-0.01,0.2-0.008,0.274c0.008,0.6,0.357,0.899,1.049,0.899c0.566,0,1.174-0.242,1.824-0.724
		c0.088-0.065,0.17-0.13,0.248-0.195c0,0.003,0,0.007,0,0.01c-0.01,0.237,0.045,0.425,0.162,0.563
		c0.148,0.167,0.389,0.247,0.725,0.237c-0.045-0.104-0.063-0.296-0.051-0.577c0.008-0.32,0.121-0.624,0.334-0.91
		c0.193-0.261,0.373-0.392,0.537-0.392c0.107,0,0.158,0.091,0.148,0.273c-0.006,0.118-0.035,0.29-0.086,0.514
		s-0.08,0.417-0.086,0.58c-0.004,0.158,0.035,0.286,0.115,0.384c0.082,0.099,0.197,0.148,0.352,0.148c0.33,0,0.66-0.143,0.99-0.428
		C37.188,11.726,37.377,11.489,37.514,11.228z M23.641,14.039c-0.133,0-0.195-0.059-0.186-0.175
		c0.016-0.217,0.389-0.504,1.121-0.862C24.195,13.693,23.883,14.039,23.641,14.039z"/>
</g>
</svg>
